<mxfile host="app.diagrams.net" agent="Mozilla/5.0 (Windows NT 10.0; Win64; x64) AppleWebKit/537.36 (KHTML, like Gecko) Chrome/133.0.0.0 Safari/537.36" version="26.0.16">
  <diagram name="第 1 页" id="Aah7uJDy7NBjEhp5nTVD">
    <mxGraphModel dx="466" dy="366" grid="1" gridSize="10" guides="1" tooltips="1" connect="1" arrows="1" fold="1" page="1" pageScale="1" pageWidth="827" pageHeight="1169" math="0" shadow="0">
      <root>
        <mxCell id="0" />
        <mxCell id="1" parent="0" />
        <mxCell id="K57l1rUAIXMRsbtSoU4z-12" value="计算机终端" style="text;html=1;align=center;verticalAlign=middle;whiteSpace=wrap;rounded=0;" parent="1" vertex="1">
          <mxGeometry x="360" y="130" width="80" height="30" as="geometry" />
        </mxCell>
        <mxCell id="K57l1rUAIXMRsbtSoU4z-13" value="遥控器" style="text;html=1;align=center;verticalAlign=middle;whiteSpace=wrap;rounded=0;" parent="1" vertex="1">
          <mxGeometry x="480" y="130" width="60" height="30" as="geometry" />
        </mxCell>
        <mxCell id="K57l1rUAIXMRsbtSoU4z-15" value="树莓派" style="text;html=1;align=center;verticalAlign=middle;whiteSpace=wrap;rounded=0;" parent="1" vertex="1">
          <mxGeometry x="370" y="395" width="60" height="30" as="geometry" />
        </mxCell>
        <mxCell id="K57l1rUAIXMRsbtSoU4z-16" value="全景相机" style="text;html=1;align=center;verticalAlign=middle;whiteSpace=wrap;rounded=0;" parent="1" vertex="1">
          <mxGeometry x="480" y="395" width="60" height="30" as="geometry" />
        </mxCell>
        <mxCell id="K57l1rUAIXMRsbtSoU4z-17" value="Pixhawk飞控" style="text;html=1;align=center;verticalAlign=middle;whiteSpace=wrap;rounded=0;" parent="1" vertex="1">
          <mxGeometry x="360" y="465" width="80" height="30" as="geometry" />
        </mxCell>
        <mxCell id="K57l1rUAIXMRsbtSoU4z-18" value="STM32" style="text;html=1;align=center;verticalAlign=middle;whiteSpace=wrap;rounded=0;" parent="1" vertex="1">
          <mxGeometry x="370" y="535" width="60" height="30" as="geometry" />
        </mxCell>
        <mxCell id="K57l1rUAIXMRsbtSoU4z-19" value="电调Ⅰ" style="text;html=1;align=center;verticalAlign=middle;whiteSpace=wrap;rounded=0;" parent="1" vertex="1">
          <mxGeometry x="100" y="655" width="60" height="30" as="geometry" />
        </mxCell>
        <mxCell id="K57l1rUAIXMRsbtSoU4z-20" value="电机Ⅰ" style="text;html=1;align=center;verticalAlign=middle;whiteSpace=wrap;rounded=0;" parent="1" vertex="1">
          <mxGeometry x="100" y="725" width="60" height="30" as="geometry" />
        </mxCell>
        <mxCell id="K57l1rUAIXMRsbtSoU4z-21" value="电调Ⅱ" style="text;html=1;align=center;verticalAlign=middle;whiteSpace=wrap;rounded=0;" parent="1" vertex="1">
          <mxGeometry x="160" y="655" width="60" height="30" as="geometry" />
        </mxCell>
        <mxCell id="K57l1rUAIXMRsbtSoU4z-22" value="电机Ⅱ" style="text;html=1;align=center;verticalAlign=middle;whiteSpace=wrap;rounded=0;" parent="1" vertex="1">
          <mxGeometry x="160" y="725" width="60" height="30" as="geometry" />
        </mxCell>
        <mxCell id="K57l1rUAIXMRsbtSoU4z-23" value="电调Ⅲ" style="text;html=1;align=center;verticalAlign=middle;whiteSpace=wrap;rounded=0;" parent="1" vertex="1">
          <mxGeometry x="220" y="655" width="60" height="30" as="geometry" />
        </mxCell>
        <mxCell id="K57l1rUAIXMRsbtSoU4z-24" value="电机Ⅲ" style="text;html=1;align=center;verticalAlign=middle;whiteSpace=wrap;rounded=0;" parent="1" vertex="1">
          <mxGeometry x="220" y="725" width="60" height="30" as="geometry" />
        </mxCell>
        <mxCell id="K57l1rUAIXMRsbtSoU4z-25" value="电调Ⅳ" style="text;html=1;align=center;verticalAlign=middle;whiteSpace=wrap;rounded=0;" parent="1" vertex="1">
          <mxGeometry x="280" y="655" width="60" height="30" as="geometry" />
        </mxCell>
        <mxCell id="K57l1rUAIXMRsbtSoU4z-26" value="电机Ⅳ" style="text;html=1;align=center;verticalAlign=middle;whiteSpace=wrap;rounded=0;" parent="1" vertex="1">
          <mxGeometry x="280" y="725" width="60" height="30" as="geometry" />
        </mxCell>
        <mxCell id="K57l1rUAIXMRsbtSoU4z-27" value="电调Ⅴ" style="text;html=1;align=center;verticalAlign=middle;whiteSpace=wrap;rounded=0;" parent="1" vertex="1">
          <mxGeometry x="340" y="655" width="60" height="30" as="geometry" />
        </mxCell>
        <mxCell id="K57l1rUAIXMRsbtSoU4z-28" value="电机Ⅴ" style="text;html=1;align=center;verticalAlign=middle;whiteSpace=wrap;rounded=0;" parent="1" vertex="1">
          <mxGeometry x="340" y="725" width="60" height="30" as="geometry" />
        </mxCell>
        <mxCell id="K57l1rUAIXMRsbtSoU4z-29" value="电调Ⅵ" style="text;html=1;align=center;verticalAlign=middle;whiteSpace=wrap;rounded=0;" parent="1" vertex="1">
          <mxGeometry x="400" y="655" width="60" height="30" as="geometry" />
        </mxCell>
        <mxCell id="K57l1rUAIXMRsbtSoU4z-30" value="电机Ⅵ" style="text;html=1;align=center;verticalAlign=middle;whiteSpace=wrap;rounded=0;" parent="1" vertex="1">
          <mxGeometry x="400" y="725" width="60" height="30" as="geometry" />
        </mxCell>
        <mxCell id="K57l1rUAIXMRsbtSoU4z-31" value="舵机Ⅰ" style="text;html=1;align=center;verticalAlign=middle;whiteSpace=wrap;rounded=0;direction=east;" parent="1" vertex="1">
          <mxGeometry x="560" y="495.5" width="60" height="30" as="geometry" />
        </mxCell>
        <mxCell id="K57l1rUAIXMRsbtSoU4z-32" value="舵机Ⅱ" style="text;html=1;align=center;verticalAlign=middle;whiteSpace=wrap;rounded=0;direction=east;" parent="1" vertex="1">
          <mxGeometry x="560" y="522" width="60" height="30" as="geometry" />
        </mxCell>
        <mxCell id="K57l1rUAIXMRsbtSoU4z-34" value="舵机Ⅲ" style="text;html=1;align=center;verticalAlign=middle;whiteSpace=wrap;rounded=0;direction=east;" parent="1" vertex="1">
          <mxGeometry x="560" y="548" width="60" height="30" as="geometry" />
        </mxCell>
        <mxCell id="K57l1rUAIXMRsbtSoU4z-35" value="舵机Ⅳ" style="text;html=1;align=center;verticalAlign=middle;whiteSpace=wrap;rounded=0;direction=east;" parent="1" vertex="1">
          <mxGeometry x="560" y="574" width="60" height="30" as="geometry" />
        </mxCell>
        <mxCell id="K57l1rUAIXMRsbtSoU4z-43" value="" style="endArrow=none;html=1;rounded=0;entryX=0.5;entryY=1;entryDx=0;entryDy=0;exitX=0.5;exitY=0;exitDx=0;exitDy=0;" parent="1" source="K57l1rUAIXMRsbtSoU4z-20" target="K57l1rUAIXMRsbtSoU4z-19" edge="1">
          <mxGeometry width="50" height="50" relative="1" as="geometry">
            <mxPoint x="110" y="835" as="sourcePoint" />
            <mxPoint x="160" y="785" as="targetPoint" />
          </mxGeometry>
        </mxCell>
        <mxCell id="K57l1rUAIXMRsbtSoU4z-44" value="" style="endArrow=none;html=1;rounded=0;entryX=0.5;entryY=1;entryDx=0;entryDy=0;exitX=0.5;exitY=0;exitDx=0;exitDy=0;" parent="1" source="K57l1rUAIXMRsbtSoU4z-22" target="K57l1rUAIXMRsbtSoU4z-21" edge="1">
          <mxGeometry width="50" height="50" relative="1" as="geometry">
            <mxPoint x="160" y="825" as="sourcePoint" />
            <mxPoint x="210" y="775" as="targetPoint" />
          </mxGeometry>
        </mxCell>
        <mxCell id="K57l1rUAIXMRsbtSoU4z-45" value="" style="endArrow=none;html=1;rounded=0;entryX=0.5;entryY=1;entryDx=0;entryDy=0;exitX=0.5;exitY=0;exitDx=0;exitDy=0;" parent="1" source="K57l1rUAIXMRsbtSoU4z-24" target="K57l1rUAIXMRsbtSoU4z-23" edge="1">
          <mxGeometry width="50" height="50" relative="1" as="geometry">
            <mxPoint x="220" y="815" as="sourcePoint" />
            <mxPoint x="270" y="765" as="targetPoint" />
          </mxGeometry>
        </mxCell>
        <mxCell id="K57l1rUAIXMRsbtSoU4z-46" value="" style="endArrow=none;html=1;rounded=0;entryX=0.5;entryY=1;entryDx=0;entryDy=0;exitX=0.5;exitY=0;exitDx=0;exitDy=0;" parent="1" source="K57l1rUAIXMRsbtSoU4z-26" target="K57l1rUAIXMRsbtSoU4z-25" edge="1">
          <mxGeometry width="50" height="50" relative="1" as="geometry">
            <mxPoint x="290" y="825" as="sourcePoint" />
            <mxPoint x="340" y="775" as="targetPoint" />
          </mxGeometry>
        </mxCell>
        <mxCell id="K57l1rUAIXMRsbtSoU4z-47" value="" style="endArrow=none;html=1;rounded=0;entryX=0.5;entryY=1;entryDx=0;entryDy=0;exitX=0.5;exitY=0;exitDx=0;exitDy=0;" parent="1" source="K57l1rUAIXMRsbtSoU4z-28" target="K57l1rUAIXMRsbtSoU4z-27" edge="1">
          <mxGeometry width="50" height="50" relative="1" as="geometry">
            <mxPoint x="340" y="835" as="sourcePoint" />
            <mxPoint x="390" y="785" as="targetPoint" />
          </mxGeometry>
        </mxCell>
        <mxCell id="K57l1rUAIXMRsbtSoU4z-48" value="" style="endArrow=none;html=1;rounded=0;entryX=0.5;entryY=1;entryDx=0;entryDy=0;exitX=0.5;exitY=0;exitDx=0;exitDy=0;" parent="1" source="K57l1rUAIXMRsbtSoU4z-30" target="K57l1rUAIXMRsbtSoU4z-29" edge="1">
          <mxGeometry width="50" height="50" relative="1" as="geometry">
            <mxPoint x="430" y="825" as="sourcePoint" />
            <mxPoint x="480" y="775" as="targetPoint" />
          </mxGeometry>
        </mxCell>
        <mxCell id="K57l1rUAIXMRsbtSoU4z-50" value="" style="endArrow=none;html=1;rounded=0;entryX=0.5;entryY=1;entryDx=0;entryDy=0;exitX=0.5;exitY=0;exitDx=0;exitDy=0;" parent="1" source="K57l1rUAIXMRsbtSoU4z-19" target="K57l1rUAIXMRsbtSoU4z-18" edge="1">
          <mxGeometry width="50" height="50" relative="1" as="geometry">
            <mxPoint x="130" y="615" as="sourcePoint" />
            <mxPoint x="180" y="565" as="targetPoint" />
            <Array as="points">
              <mxPoint x="130" y="615" />
              <mxPoint x="190" y="615" />
              <mxPoint x="400" y="615" />
            </Array>
          </mxGeometry>
        </mxCell>
        <mxCell id="K57l1rUAIXMRsbtSoU4z-52" value="" style="endArrow=none;html=1;rounded=0;exitX=0;exitY=0.5;exitDx=0;exitDy=0;" parent="1" source="K57l1rUAIXMRsbtSoU4z-34" edge="1">
          <mxGeometry width="50" height="50" relative="1" as="geometry">
            <mxPoint x="280" y="500.5" as="sourcePoint" />
            <mxPoint x="530" y="563" as="targetPoint" />
          </mxGeometry>
        </mxCell>
        <mxCell id="K57l1rUAIXMRsbtSoU4z-54" value="" style="endArrow=none;html=1;rounded=0;exitX=0;exitY=0.5;exitDx=0;exitDy=0;" parent="1" source="K57l1rUAIXMRsbtSoU4z-32" edge="1">
          <mxGeometry width="50" height="50" relative="1" as="geometry">
            <mxPoint x="280" y="500.5" as="sourcePoint" />
            <mxPoint x="530" y="537" as="targetPoint" />
          </mxGeometry>
        </mxCell>
        <mxCell id="K57l1rUAIXMRsbtSoU4z-55" value="" style="endArrow=none;html=1;rounded=0;exitX=0;exitY=0.5;exitDx=0;exitDy=0;" parent="1" edge="1">
          <mxGeometry width="50" height="50" relative="1" as="geometry">
            <mxPoint x="560" y="510.5" as="sourcePoint" />
            <mxPoint x="530" y="510.5" as="targetPoint" />
          </mxGeometry>
        </mxCell>
        <mxCell id="K57l1rUAIXMRsbtSoU4z-56" value="" style="endArrow=none;html=1;rounded=0;exitX=0.5;exitY=0;exitDx=0;exitDy=0;" parent="1" source="K57l1rUAIXMRsbtSoU4z-29" edge="1">
          <mxGeometry width="50" height="50" relative="1" as="geometry">
            <mxPoint x="450" y="565" as="sourcePoint" />
            <mxPoint x="430" y="615" as="targetPoint" />
          </mxGeometry>
        </mxCell>
        <mxCell id="K57l1rUAIXMRsbtSoU4z-57" value="" style="endArrow=none;html=1;rounded=0;exitX=0.5;exitY=0;exitDx=0;exitDy=0;" parent="1" source="K57l1rUAIXMRsbtSoU4z-27" edge="1">
          <mxGeometry width="50" height="50" relative="1" as="geometry">
            <mxPoint x="390" y="535" as="sourcePoint" />
            <mxPoint x="370" y="615" as="targetPoint" />
          </mxGeometry>
        </mxCell>
        <mxCell id="K57l1rUAIXMRsbtSoU4z-58" value="" style="endArrow=none;html=1;rounded=0;exitX=0.5;exitY=0;exitDx=0;exitDy=0;" parent="1" source="K57l1rUAIXMRsbtSoU4z-25" edge="1">
          <mxGeometry width="50" height="50" relative="1" as="geometry">
            <mxPoint x="390" y="535" as="sourcePoint" />
            <mxPoint x="310" y="615" as="targetPoint" />
          </mxGeometry>
        </mxCell>
        <mxCell id="K57l1rUAIXMRsbtSoU4z-59" value="" style="endArrow=none;html=1;rounded=0;exitX=0.5;exitY=0;exitDx=0;exitDy=0;" parent="1" source="K57l1rUAIXMRsbtSoU4z-23" edge="1">
          <mxGeometry width="50" height="50" relative="1" as="geometry">
            <mxPoint x="390" y="535" as="sourcePoint" />
            <mxPoint x="250" y="615" as="targetPoint" />
          </mxGeometry>
        </mxCell>
        <mxCell id="K57l1rUAIXMRsbtSoU4z-60" value="" style="endArrow=none;html=1;rounded=0;exitX=0.5;exitY=0;exitDx=0;exitDy=0;" parent="1" source="K57l1rUAIXMRsbtSoU4z-21" edge="1">
          <mxGeometry width="50" height="50" relative="1" as="geometry">
            <mxPoint x="390" y="535" as="sourcePoint" />
            <mxPoint x="190" y="615" as="targetPoint" />
          </mxGeometry>
        </mxCell>
        <mxCell id="K57l1rUAIXMRsbtSoU4z-61" value="" style="endArrow=none;html=1;rounded=0;entryX=0.5;entryY=1;entryDx=0;entryDy=0;exitX=0.5;exitY=0;exitDx=0;exitDy=0;" parent="1" source="K57l1rUAIXMRsbtSoU4z-18" target="K57l1rUAIXMRsbtSoU4z-17" edge="1">
          <mxGeometry width="50" height="50" relative="1" as="geometry">
            <mxPoint x="390" y="535" as="sourcePoint" />
            <mxPoint x="440" y="485" as="targetPoint" />
          </mxGeometry>
        </mxCell>
        <mxCell id="K57l1rUAIXMRsbtSoU4z-62" value="" style="endArrow=none;html=1;rounded=0;entryX=0.5;entryY=1;entryDx=0;entryDy=0;exitX=0.5;exitY=0;exitDx=0;exitDy=0;" parent="1" source="K57l1rUAIXMRsbtSoU4z-17" target="K57l1rUAIXMRsbtSoU4z-15" edge="1">
          <mxGeometry width="50" height="50" relative="1" as="geometry">
            <mxPoint x="560" y="525" as="sourcePoint" />
            <mxPoint x="610" y="475" as="targetPoint" />
          </mxGeometry>
        </mxCell>
        <mxCell id="K57l1rUAIXMRsbtSoU4z-63" value="" style="endArrow=none;html=1;rounded=0;entryX=0.5;entryY=1;entryDx=0;entryDy=0;exitX=0.5;exitY=0;exitDx=0;exitDy=0;" parent="1" source="K57l1rUAIXMRsbtSoU4z-15" edge="1">
          <mxGeometry width="50" height="50" relative="1" as="geometry">
            <mxPoint x="225" y="385" as="sourcePoint" />
            <mxPoint x="400" y="355" as="targetPoint" />
          </mxGeometry>
        </mxCell>
        <mxCell id="K57l1rUAIXMRsbtSoU4z-65" value="" style="endArrow=none;html=1;rounded=0;exitX=1;exitY=0.5;exitDx=0;exitDy=0;entryX=0;entryY=0.5;entryDx=0;entryDy=0;" parent="1" source="K57l1rUAIXMRsbtSoU4z-12" target="K57l1rUAIXMRsbtSoU4z-13" edge="1">
          <mxGeometry width="50" height="50" relative="1" as="geometry">
            <mxPoint x="645" y="210" as="sourcePoint" />
            <mxPoint x="695" y="160" as="targetPoint" />
          </mxGeometry>
        </mxCell>
        <mxCell id="K57l1rUAIXMRsbtSoU4z-66" value="" style="endArrow=none;html=1;rounded=0;entryX=0;entryY=0.5;entryDx=0;entryDy=0;exitX=1;exitY=0.5;exitDx=0;exitDy=0;" parent="1" source="K57l1rUAIXMRsbtSoU4z-15" target="K57l1rUAIXMRsbtSoU4z-16" edge="1">
          <mxGeometry width="50" height="50" relative="1" as="geometry">
            <mxPoint x="390" y="535" as="sourcePoint" />
            <mxPoint x="450" y="465" as="targetPoint" />
          </mxGeometry>
        </mxCell>
        <mxCell id="K57l1rUAIXMRsbtSoU4z-68" value="" style="endArrow=none;dashed=1;html=1;rounded=0;exitX=0.75;exitY=0;exitDx=0;exitDy=0;strokeColor=#FF3333;entryX=0;entryY=0.5;entryDx=0;entryDy=0;" parent="1" source="K57l1rUAIXMRsbtSoU4z-19" target="qGf4XF-w7ADYlS55NQo9-3" edge="1">
          <mxGeometry width="50" height="50" relative="1" as="geometry">
            <mxPoint x="165" y="565" as="sourcePoint" />
            <mxPoint x="340" y="335" as="targetPoint" />
            <Array as="points">
              <mxPoint x="145" y="335" />
            </Array>
          </mxGeometry>
        </mxCell>
        <mxCell id="K57l1rUAIXMRsbtSoU4z-69" value="" style="endArrow=none;dashed=1;html=1;rounded=0;exitX=0.75;exitY=0;exitDx=0;exitDy=0;strokeColor=#FF3333;" parent="1" source="K57l1rUAIXMRsbtSoU4z-21" edge="1">
          <mxGeometry width="50" height="50" relative="1" as="geometry">
            <mxPoint x="210" y="535" as="sourcePoint" />
            <mxPoint x="150" y="605" as="targetPoint" />
            <Array as="points">
              <mxPoint x="205" y="605" />
            </Array>
          </mxGeometry>
        </mxCell>
        <mxCell id="K57l1rUAIXMRsbtSoU4z-70" value="" style="endArrow=none;dashed=1;html=1;rounded=0;exitX=0.75;exitY=0;exitDx=0;exitDy=0;strokeColor=#FF3333;" parent="1" edge="1">
          <mxGeometry width="50" height="50" relative="1" as="geometry">
            <mxPoint x="265" y="655" as="sourcePoint" />
            <mxPoint x="210" y="605" as="targetPoint" />
            <Array as="points">
              <mxPoint x="265" y="605" />
            </Array>
          </mxGeometry>
        </mxCell>
        <mxCell id="K57l1rUAIXMRsbtSoU4z-71" value="" style="endArrow=none;dashed=1;html=1;rounded=0;exitX=0.75;exitY=0;exitDx=0;exitDy=0;strokeColor=#FF3333;" parent="1" edge="1">
          <mxGeometry width="50" height="50" relative="1" as="geometry">
            <mxPoint x="325" y="655" as="sourcePoint" />
            <mxPoint x="270" y="605" as="targetPoint" />
            <Array as="points">
              <mxPoint x="325" y="605" />
            </Array>
          </mxGeometry>
        </mxCell>
        <mxCell id="K57l1rUAIXMRsbtSoU4z-72" value="" style="endArrow=none;dashed=1;html=1;rounded=0;exitX=0.75;exitY=0;exitDx=0;exitDy=0;strokeColor=#FF3333;" parent="1" edge="1">
          <mxGeometry width="50" height="50" relative="1" as="geometry">
            <mxPoint x="385" y="655" as="sourcePoint" />
            <mxPoint x="330" y="605" as="targetPoint" />
            <Array as="points">
              <mxPoint x="385" y="605" />
            </Array>
          </mxGeometry>
        </mxCell>
        <mxCell id="K57l1rUAIXMRsbtSoU4z-73" value="" style="endArrow=none;dashed=1;html=1;rounded=0;exitX=0.75;exitY=0;exitDx=0;exitDy=0;strokeColor=#FF3333;" parent="1" source="K57l1rUAIXMRsbtSoU4z-29" edge="1">
          <mxGeometry width="50" height="50" relative="1" as="geometry">
            <mxPoint x="441" y="655" as="sourcePoint" />
            <mxPoint x="390" y="605" as="targetPoint" />
            <Array as="points">
              <mxPoint x="445" y="605" />
            </Array>
          </mxGeometry>
        </mxCell>
        <mxCell id="K57l1rUAIXMRsbtSoU4z-74" value="" style="endArrow=none;dashed=1;html=1;rounded=0;entryX=0;entryY=0.5;entryDx=0;entryDy=0;strokeColor=#FF3333;" parent="1" target="K57l1rUAIXMRsbtSoU4z-17" edge="1">
          <mxGeometry width="50" height="50" relative="1" as="geometry">
            <mxPoint x="150" y="480" as="sourcePoint" />
            <mxPoint x="440" y="485" as="targetPoint" />
          </mxGeometry>
        </mxCell>
        <mxCell id="K57l1rUAIXMRsbtSoU4z-76" value="" style="endArrow=none;dashed=1;html=1;rounded=0;entryX=0;entryY=0.5;entryDx=0;entryDy=0;strokeColor=#FF3333;" parent="1" target="K57l1rUAIXMRsbtSoU4z-15" edge="1">
          <mxGeometry width="50" height="50" relative="1" as="geometry">
            <mxPoint x="150" y="410" as="sourcePoint" />
            <mxPoint x="270" y="385" as="targetPoint" />
          </mxGeometry>
        </mxCell>
        <mxCell id="K57l1rUAIXMRsbtSoU4z-78" value="" style="endArrow=none;dashed=1;html=1;rounded=0;entryX=0;entryY=0.5;entryDx=0;entryDy=0;strokeColor=#FF3333;" parent="1" target="K57l1rUAIXMRsbtSoU4z-18" edge="1">
          <mxGeometry width="50" height="50" relative="1" as="geometry">
            <mxPoint x="150" y="550" as="sourcePoint" />
            <mxPoint x="280" y="525" as="targetPoint" />
          </mxGeometry>
        </mxCell>
        <mxCell id="K57l1rUAIXMRsbtSoU4z-80" value="" style="endArrow=none;dashed=1;html=1;rounded=0;entryX=0;entryY=0.5;entryDx=0;entryDy=0;strokeColor=#FF3333;" parent="1" target="K57l1rUAIXMRsbtSoU4z-84" edge="1">
          <mxGeometry width="50" height="50" relative="1" as="geometry">
            <mxPoint x="630" y="135" as="sourcePoint" />
            <mxPoint x="680" y="134.5" as="targetPoint" />
          </mxGeometry>
        </mxCell>
        <mxCell id="K57l1rUAIXMRsbtSoU4z-81" value="" style="endArrow=none;html=1;rounded=0;entryX=0;entryY=0.5;entryDx=0;entryDy=0;" parent="1" target="K57l1rUAIXMRsbtSoU4z-82" edge="1">
          <mxGeometry width="50" height="50" relative="1" as="geometry">
            <mxPoint x="630" y="164.5" as="sourcePoint" />
            <mxPoint x="690" y="164.5" as="targetPoint" />
          </mxGeometry>
        </mxCell>
        <mxCell id="K57l1rUAIXMRsbtSoU4z-82" value="信号" style="text;html=1;align=center;verticalAlign=middle;whiteSpace=wrap;rounded=0;" parent="1" vertex="1">
          <mxGeometry x="680" y="150" width="60" height="30" as="geometry" />
        </mxCell>
        <mxCell id="K57l1rUAIXMRsbtSoU4z-84" value="供电" style="text;html=1;align=center;verticalAlign=middle;whiteSpace=wrap;rounded=0;" parent="1" vertex="1">
          <mxGeometry x="680" y="120" width="60" height="30" as="geometry" />
        </mxCell>
        <mxCell id="qGf4XF-w7ADYlS55NQo9-1" value="" style="endArrow=none;html=1;rounded=0;entryX=0.5;entryY=1;entryDx=0;entryDy=0;exitX=0.5;exitY=0;exitDx=0;exitDy=0;" parent="1" source="qGf4XF-w7ADYlS55NQo9-2" target="K57l1rUAIXMRsbtSoU4z-12" edge="1">
          <mxGeometry width="50" height="50" relative="1" as="geometry">
            <mxPoint x="660" y="320" as="sourcePoint" />
            <mxPoint x="580" y="240" as="targetPoint" />
          </mxGeometry>
        </mxCell>
        <mxCell id="qGf4XF-w7ADYlS55NQo9-2" value="光电转换模块" style="text;html=1;align=center;verticalAlign=middle;whiteSpace=wrap;rounded=0;" parent="1" vertex="1">
          <mxGeometry x="360" y="200" width="80" height="30" as="geometry" />
        </mxCell>
        <mxCell id="qGf4XF-w7ADYlS55NQo9-3" value="光电转换模块" style="text;html=1;align=center;verticalAlign=middle;whiteSpace=wrap;rounded=0;" parent="1" vertex="1">
          <mxGeometry x="360" y="320" width="80" height="30" as="geometry" />
        </mxCell>
        <mxCell id="qGf4XF-w7ADYlS55NQo9-6" value="" style="endArrow=none;dashed=1;html=1;dashPattern=1 3;strokeWidth=2;rounded=0;exitX=0.5;exitY=0;exitDx=0;exitDy=0;entryX=0.5;entryY=1;entryDx=0;entryDy=0;" parent="1" source="qGf4XF-w7ADYlS55NQo9-3" target="qGf4XF-w7ADYlS55NQo9-2" edge="1">
          <mxGeometry width="50" height="50" relative="1" as="geometry">
            <mxPoint x="485" y="320" as="sourcePoint" />
            <mxPoint x="535" y="270" as="targetPoint" />
          </mxGeometry>
        </mxCell>
        <mxCell id="qGf4XF-w7ADYlS55NQo9-8" value="" style="endArrow=none;dashed=1;html=1;dashPattern=1 3;strokeWidth=2;rounded=0;entryX=0;entryY=0.5;entryDx=0;entryDy=0;" parent="1" target="qGf4XF-w7ADYlS55NQo9-9" edge="1">
          <mxGeometry width="50" height="50" relative="1" as="geometry">
            <mxPoint x="630" y="195" as="sourcePoint" />
            <mxPoint x="650" y="210" as="targetPoint" />
          </mxGeometry>
        </mxCell>
        <mxCell id="qGf4XF-w7ADYlS55NQo9-9" value="光纤" style="text;html=1;align=center;verticalAlign=middle;whiteSpace=wrap;rounded=0;" parent="1" vertex="1">
          <mxGeometry x="680" y="180" width="60" height="30" as="geometry" />
        </mxCell>
        <mxCell id="qGf4XF-w7ADYlS55NQo9-10" value="" style="endArrow=none;dashed=1;html=1;rounded=0;exitX=0.25;exitY=0;exitDx=0;exitDy=0;strokeColor=#FF3333;" parent="1" source="qGf4XF-w7ADYlS55NQo9-3" edge="1">
          <mxGeometry width="50" height="50" relative="1" as="geometry">
            <mxPoint x="500" y="330" as="sourcePoint" />
            <mxPoint x="380" y="230" as="targetPoint" />
          </mxGeometry>
        </mxCell>
        <mxCell id="qGf4XF-w7ADYlS55NQo9-11" value="电源" style="text;html=1;align=center;verticalAlign=middle;whiteSpace=wrap;rounded=0;" parent="1" vertex="1">
          <mxGeometry x="190" y="200" width="60" height="30" as="geometry" />
        </mxCell>
        <mxCell id="qGf4XF-w7ADYlS55NQo9-12" value="" style="endArrow=none;dashed=1;html=1;rounded=0;entryX=0;entryY=0.5;entryDx=0;entryDy=0;exitX=1;exitY=0.5;exitDx=0;exitDy=0;strokeColor=#FF3333;" parent="1" source="qGf4XF-w7ADYlS55NQo9-11" target="qGf4XF-w7ADYlS55NQo9-2" edge="1">
          <mxGeometry width="50" height="50" relative="1" as="geometry">
            <mxPoint x="230" y="290" as="sourcePoint" />
            <mxPoint x="280" y="240" as="targetPoint" />
          </mxGeometry>
        </mxCell>
        <mxCell id="yC70z2PjgywdZNO4H_fo-3" value="旋转机臂" style="text;html=1;align=center;verticalAlign=middle;whiteSpace=wrap;rounded=0;" vertex="1" parent="1">
          <mxGeometry x="470" y="520.5" width="60" height="30" as="geometry" />
        </mxCell>
        <mxCell id="yC70z2PjgywdZNO4H_fo-4" value="" style="rounded=1;whiteSpace=wrap;html=1;fillColor=none;dashed=1;rotation=-90;" vertex="1" parent="1">
          <mxGeometry x="482.5" y="472.5" width="120" height="155" as="geometry" />
        </mxCell>
        <mxCell id="yC70z2PjgywdZNO4H_fo-5" value="" style="endArrow=none;html=1;rounded=0;" edge="1" parent="1">
          <mxGeometry width="50" height="50" relative="1" as="geometry">
            <mxPoint x="430" y="550" as="sourcePoint" />
            <mxPoint x="530" y="550" as="targetPoint" />
          </mxGeometry>
        </mxCell>
        <mxCell id="yC70z2PjgywdZNO4H_fo-6" value="" style="endArrow=none;html=1;rounded=0;entryX=0;entryY=0.5;entryDx=0;entryDy=0;" edge="1" parent="1">
          <mxGeometry width="50" height="50" relative="1" as="geometry">
            <mxPoint x="530" y="589.5" as="sourcePoint" />
            <mxPoint x="560" y="589.5" as="targetPoint" />
          </mxGeometry>
        </mxCell>
        <mxCell id="yC70z2PjgywdZNO4H_fo-7" value="" style="endArrow=none;html=1;rounded=0;" edge="1" parent="1">
          <mxGeometry width="50" height="50" relative="1" as="geometry">
            <mxPoint x="530" y="510" as="sourcePoint" />
            <mxPoint x="530" y="590" as="targetPoint" />
          </mxGeometry>
        </mxCell>
      </root>
    </mxGraphModel>
  </diagram>
</mxfile>
